<svg xmlns="http://www.w3.org/2000/svg" version="1.1" xmlns:xlink="http://www.w3.org/1999/xlink" xmlns:svgjs="http://svgjs.com/svgjs" width="1800" height="800" preserveAspectRatio="none" viewBox="0 0 1800 800"><g mask="url(&quot;#SvgjsMask3392&quot;)" fill="none"><rect width="1800" height="800" x="0" y="0" fill="url(#SvgjsLinearGradient3393)"></rect><path d="M8 800L808 0L1117 0L317 800z" fill="url(#SvgjsLinearGradient3394)"></path><path d="M606 800L1406 0L1886 0L1086 800z" fill="url(#SvgjsLinearGradient3394)"></path><path d="M1703 800L903 0L129 0L929 800z" fill="url(#SvgjsLinearGradient3395)"></path><path d="M1094 800L294 0L-541.5 0L258.5 800z" fill="url(#SvgjsLinearGradient3395)"></path><path d="M1067.1926121064052 800L1800 67.19261210640514L1800 800z" fill="url(#SvgjsLinearGradient3394)"></path><path d="M0 800L732.8073878935949 800L 0 67.19261210640514z" fill="url(#SvgjsLinearGradient3395)"></path></g><defs><mask id="SvgjsMask3392"><rect width="1800" height="800" fill="#ffffff"></rect></mask><linearGradient x1="50%" y1="100%" x2="50%" y2="0%" gradientUnits="userSpaceOnUse" id="SvgjsLinearGradient3393"><stop stop-color="rgba(225, 225, 225, 0.75)" offset="0"></stop><stop stop-color="rgba(255, 255, 255, 1)" offset="1"></stop></linearGradient><linearGradient x1="0%" y1="100%" x2="100%" y2="0%" id="SvgjsLinearGradient3394"><stop stop-color="rgba(162, 162, 162, 0.15)" offset="0"></stop><stop stop-opacity="0" stop-color="rgba(162, 162, 162, 0.15)" offset="0.66"></stop></linearGradient><linearGradient x1="100%" y1="100%" x2="0%" y2="0%" id="SvgjsLinearGradient3395"><stop stop-color="rgba(162, 162, 162, 0.15)" offset="0"></stop><stop stop-opacity="0" stop-color="rgba(162, 162, 162, 0.15)" offset="0.66"></stop></linearGradient></defs></svg>