<svg xmlns="http://www.w3.org/2000/svg" version="1.1" xmlns:xlink="http://www.w3.org/1999/xlink" xmlns:svgjs="http://svgjs.com/svgjs" width="2000" height="800" preserveAspectRatio="none" viewBox="0 0 2000 800"><g mask="url(&quot;#SvgjsMask1030&quot;)" fill="none"><rect width="2000" height="800" x="0" y="0" fill="rgba(233, 233, 233, 1)"></rect><path d="M0 0L738.47 0L0 304.88z" fill="rgba(255, 255, 255, .1)"></path><path d="M0 304.88L738.47 0L980.94 0L0 449.29999999999995z" fill="rgba(255, 255, 255, .075)"></path><path d="M0 449.29999999999995L980.94 0L1345.01 0L0 644.18z" fill="rgba(255, 255, 255, .05)"></path><path d="M0 644.18L1345.01 0L1405.2 0L0 695.3z" fill="rgba(255, 255, 255, .025)"></path><path d="M2000 800L1386.47 800L2000 718.8199999999999z" fill="rgba(0, 0, 0, .1)"></path><path d="M2000 718.8199999999999L1386.47 800L678.11 800L2000 362.94999999999993z" fill="rgba(0, 0, 0, .075)"></path><path d="M2000 362.95L678.1100000000001 800L367.59000000000015 800L2000 256.74z" fill="rgba(0, 0, 0, .05)"></path><path d="M2000 256.74L367.59000000000015 800L215.43000000000015 800L2000 137.25z" fill="rgba(0, 0, 0, .025)"></path></g><defs><mask id="SvgjsMask1030"><rect width="2000" height="800" fill="#ffffff"></rect></mask></defs></svg>