<?xml version="1.0" standalone="no"?>
<svg xmlns:xlink="http://www.w3.org/1999/xlink" id="wave" style="transform:rotate(0deg); transition: 0.3s" viewBox="0 0 1440 380" version="1.1" xmlns="http://www.w3.org/2000/svg"><defs><linearGradient id="sw-gradient-0" x1="0" x2="0" y1="1" y2="0"><stop stop-color="rgba(27, 90, 90, 1)" offset="0%"/><stop stop-color="rgba(69, 189, 189, 1)" offset="100%"/></linearGradient></defs><path style="transform:translate(0, 0px); opacity:1" fill="url(#sw-gradient-0)" d="M0,228L60,234.3C120,241,240,253,360,228C480,203,600,139,720,139.3C840,139,960,203,1080,196.3C1200,190,1320,114,1440,76C1560,38,1680,38,1800,44.3C1920,51,2040,63,2160,82.3C2280,101,2400,127,2520,139.3C2640,152,2760,152,2880,139.3C3000,127,3120,101,3240,120.3C3360,139,3480,203,3600,228C3720,253,3840,241,3960,215.3C4080,190,4200,152,4320,152C4440,152,4560,190,4680,196.3C4800,203,4920,177,5040,145.7C5160,114,5280,76,5400,95C5520,114,5640,190,5760,221.7C5880,253,6000,241,6120,215.3C6240,190,6360,152,6480,126.7C6600,101,6720,89,6840,114C6960,139,7080,203,7200,228C7320,253,7440,241,7560,215.3C7680,190,7800,152,7920,126.7C8040,101,8160,89,8280,126.7C8400,165,8520,253,8580,297.7L8640,342L8640,380L8580,380C8520,380,8400,380,8280,380C8160,380,8040,380,7920,380C7800,380,7680,380,7560,380C7440,380,7320,380,7200,380C7080,380,6960,380,6840,380C6720,380,6600,380,6480,380C6360,380,6240,380,6120,380C6000,380,5880,380,5760,380C5640,380,5520,380,5400,380C5280,380,5160,380,5040,380C4920,380,4800,380,4680,380C4560,380,4440,380,4320,380C4200,380,4080,380,3960,380C3840,380,3720,380,3600,380C3480,380,3360,380,3240,380C3120,380,3000,380,2880,380C2760,380,2640,380,2520,380C2400,380,2280,380,2160,380C2040,380,1920,380,1800,380C1680,380,1560,380,1440,380C1320,380,1200,380,1080,380C960,380,840,380,720,380C600,380,480,380,360,380C240,380,120,380,60,380L0,380Z"/><defs><linearGradient id="sw-gradient-1" x1="0" x2="0" y1="1" y2="0"><stop stop-color="rgba(27, 90, 90, 1)" offset="0%"/><stop stop-color="rgba(69, 189, 189, 1)" offset="100%"/></linearGradient></defs><path style="transform:translate(0, 50px); opacity:0.9" fill="url(#sw-gradient-1)" d="M0,190L60,209C120,228,240,266,360,253.3C480,241,600,177,720,164.7C840,152,960,190,1080,228C1200,266,1320,304,1440,323C1560,342,1680,342,1800,316.7C1920,291,2040,241,2160,209C2280,177,2400,165,2520,158.3C2640,152,2760,152,2880,171C3000,190,3120,228,3240,234.3C3360,241,3480,215,3600,202.7C3720,190,3840,190,3960,177.3C4080,165,4200,139,4320,107.7C4440,76,4560,38,4680,25.3C4800,13,4920,25,5040,44.3C5160,63,5280,89,5400,133C5520,177,5640,241,5760,259.7C5880,279,6000,253,6120,215.3C6240,177,6360,127,6480,133C6600,139,6720,203,6840,190C6960,177,7080,89,7200,76C7320,63,7440,127,7560,139.3C7680,152,7800,114,7920,133C8040,152,8160,228,8280,259.7C8400,291,8520,279,8580,272.3L8640,266L8640,380L8580,380C8520,380,8400,380,8280,380C8160,380,8040,380,7920,380C7800,380,7680,380,7560,380C7440,380,7320,380,7200,380C7080,380,6960,380,6840,380C6720,380,6600,380,6480,380C6360,380,6240,380,6120,380C6000,380,5880,380,5760,380C5640,380,5520,380,5400,380C5280,380,5160,380,5040,380C4920,380,4800,380,4680,380C4560,380,4440,380,4320,380C4200,380,4080,380,3960,380C3840,380,3720,380,3600,380C3480,380,3360,380,3240,380C3120,380,3000,380,2880,380C2760,380,2640,380,2520,380C2400,380,2280,380,2160,380C2040,380,1920,380,1800,380C1680,380,1560,380,1440,380C1320,380,1200,380,1080,380C960,380,840,380,720,380C600,380,480,380,360,380C240,380,120,380,60,380L0,380Z"/></svg>